HIERARCHY
ROOT root
{
	OFFSET	0	13.1	24.9
	CHANNELS 6  Xposition Yposition Zposition Xrotation Yrotation Zrotation
	JOINT spine_1
	{
		OFFSET	0	9.99999	0
		CHANNELS 3  Xrotation Yrotation Zrotation
		JOINT spine_2
		{
			OFFSET	0	112	-10
			CHANNELS 3  Xrotation Yrotation Zrotation
			JOINT spine_3
			{
				OFFSET	0	206.5	19.3
				CHANNELS 3  Xrotation Yrotation Zrotation
				JOINT spine_4
				{
					OFFSET	0	110.4	14.6
					CHANNELS 3  Xrotation Yrotation Zrotation
					JOINT neck_1
					{
						OFFSET	0	71.8	-50.3
						CHANNELS 3  Xrotation Yrotation Zrotation
						JOINT neck_2
						{
							OFFSET	0	86.2	-25.8
							CHANNELS 3  Xrotation Yrotation Zrotation
							JOINT head_ee
							{
								OFFSET	0	179.8	-8.7
								CHANNELS 3  Xrotation Yrotation Zrotation
								End Site
								{
									OFFSET	1	0	0
								}
							}
						}
					}
					JOINT left_clavicle
					{
						OFFSET	-43.2	22.4	-70.8
						CHANNELS 3  Xrotation Yrotation Zrotation
						JOINT left_shoulder
						{
							OFFSET	-93.9	-5.79999	48.7
							CHANNELS 3  Xrotation Yrotation Zrotation
							JOINT left_elbow
							{
								OFFSET	-291.4	-30.8	15.2
								CHANNELS 3  Xrotation Yrotation Zrotation
								JOINT left_lowarm_twist
								{
									OFFSET	-110.7	-3.89999	13.6
									CHANNELS 3  Xrotation Yrotation Zrotation
									JOINT left_hand
									{
										OFFSET	-110.7	-3.89999	13.6
										CHANNELS 3  Xrotation Yrotation Zrotation
										JOINT left_ee
										{
											OFFSET	-80.8	-5.10001	12.1
											CHANNELS 3  Xrotation Yrotation Zrotation
											End Site
											{
												OFFSET	1	0	0
											}
										}
									}
								}
							}
						}
					}
					JOINT right_clavicle
					{
						OFFSET	43.2	22.4	-70.8
						CHANNELS 3  Xrotation Yrotation Zrotation
						JOINT right_shoulder
						{
							OFFSET	93.9	-5.79999	48.7
							CHANNELS 3  Xrotation Yrotation Zrotation
							JOINT right_elbow
							{
								OFFSET	291.4	-30.8	15.2
								CHANNELS 3  Xrotation Yrotation Zrotation
								JOINT right_lowarm_twist
								{
									OFFSET	110.7	-3.89999	13.6
									CHANNELS 3  Xrotation Yrotation Zrotation
									JOINT right_hand
									{
										OFFSET	110.7	-3.89999	13.6
										CHANNELS 3  Xrotation Yrotation Zrotation
										JOINT right_ee
										{
											OFFSET	80.8	-5.10001	12.1
											CHANNELS 3  Xrotation Yrotation Zrotation
											End Site
											{
												OFFSET	1	0	0
											}
										}
									}
								}
							}
						}
					}
				}
			}
		}
	}
	JOINT left_hip
	{
		OFFSET	-82.8	-127.5	0.300001
		CHANNELS 3  Xrotation Yrotation Zrotation
		JOINT left_knee
		{
			OFFSET	-28.2	-396.7	2.2
			CHANNELS 3  Xrotation Yrotation Zrotation
			JOINT left_ankle
			{
				OFFSET	-11.7	-411.3	35.4
				CHANNELS 3  Xrotation Yrotation Zrotation
				JOINT left_toes
				{
					OFFSET	0	-60	-88.6
					CHANNELS 3  Xrotation Yrotation Zrotation
					JOINT left_foot_ee
					{
						OFFSET	-22.5	-16.5	-42.2
						CHANNELS 3  Xrotation Yrotation Zrotation
						End Site
						{
							OFFSET	1	0	0
						}
					}
				}
			}
		}
	}
	JOINT right_hip
	{
		OFFSET	82.8	-127.5	0.300001
		CHANNELS 3  Xrotation Yrotation Zrotation
		JOINT right_knee
		{
			OFFSET	28.2	-396.7	2.2
			CHANNELS 3  Xrotation Yrotation Zrotation
			JOINT right_ankle
			{
				OFFSET	11.7	-411.3	35.4
				CHANNELS 3  Xrotation Yrotation Zrotation
				JOINT right_toes
				{
					OFFSET	0	-60	-88.6
					CHANNELS 3  Xrotation Yrotation Zrotation
					JOINT right_foot_ee
					{
						OFFSET	22.5	-16.5	-42.2
						CHANNELS 3  Xrotation Yrotation Zrotation
						End Site
						{
							OFFSET	1	0	0
						}
					}
				}
			}
		}
	}
}
MOTION
Frames: 5
Frame Time: 0.02
3853.3 680.552 -249.422 6.96981 49.3971 -1.69443 -1.85205 0.000650869 -1.64711 -1.85055 0.105445 -1.64374 -1.85236 0.499698 -1.56951 -1.85571 0.245587 -1.62871 -11.0595 8.72297 7.63456 -10.9556 11.4628 9.67677 -0.0 0.0 -0.0 10.2436 -8.12074 20.3767 4.0596 15.6683 69.5488 0.28758 -8.1079 0.0203818 4.47259 0.135973 -0.554968 1.42063 -8.72177 5.89826 -0.0 0.0 -0.0 12.9333 28.0476 -25.2674 -13.3435 -13.3369 -59.6731 1.13537 29.3537 -0.297378 3.04 -0.0971466 0.376093 -0.569535 20.2832 12.4525 0.0 0.0 0.0 -4.26712 6.00801 7.96644 -7.43559 0.233971 1.11636 15.825 22.7119 -2.28036 0.0331667 -0.0 -0.0 -0.0 0.0 -0.0 0.375409 9.17847 1.18881 -7.05983 -0.22564 -1.0593 7.63285 -4.20691 1.09596 -7.7504 0.0 0.0 0.0 0.0 0.0 
3850.61 680.416 -241.703 7.06114 49.4234 -1.72435 -1.90325 -0.0077886 -1.93677 -1.90117 0.115445 -1.93334 -1.90335 0.581118 -1.84758 -1.908 0.282091 -1.91614 -11.1505 8.25355 7.72625 -11.0345 10.5287 9.6477 -0.0 0.0 -0.0 10.6324 -9.94116 21.2237 5.25994 15.425 71.0358 0.288103 -8.12245 0.0204556 4.96402 0.14826 -0.616541 1.66131 -8.68017 7.55207 -0.0 0.0 -0.0 12.8743 28.2029 -25.1111 -13.6211 -12.7499 -58.8075 1.04197 27.3003 -0.25305 3.41634 -0.107779 0.422989 -0.183049 20.3197 9.86693 0.0 0.0 0.0 -4.12151 6.33845 7.79073 -7.43281 0.233911 1.11594 15.3513 24.8251 -2.23991 -0.38453 0.0 0.0 -0.0 0.0 -0.0 0.378182 9.28909 2.3836 -6.76222 -0.218776 -1.01414 7.69323 -4.44698 1.10411 -7.49784 0.0 0.0 0.0 0.0 0.0 
3846.31 682.074 -240.238 6.85746 50.2453 -1.84011 -1.9262 0.116359 -2.06018 -1.92388 0.24719 -2.04861 -1.93099 0.737919 -1.92706 -1.93592 0.424381 -2.01937 -11.2147 8.00407 8.01385 -11.0806 9.8774 9.86203 -0.0 0.0 -0.0 10.812 -10.9728 21.6113 5.31861 15.1927 70.6409 0.290184 -8.18034 0.0207506 4.98246 0.148711 -0.618854 1.93146 -8.89687 9.30159 -0.0 0.0 -0.0 12.7198 28.245 -24.7516 -13.7682 -12.35 -58.0624 0.975969 25.8017 -0.223547 3.70544 -0.115739 0.459062 0.129053 20.2701 7.75975 0.0 0.0 0.0 -4.3341 4.19066 7.47814 -7.43876 0.23404 1.11684 15.0028 26.3054 -2.2103 -0.782271 0.0 0.0 -0.0 0.0 -0.0 0.676437 8.56865 2.50189 -6.5839 -0.214551 -0.987102 7.73684 -4.6144 1.11001 -7.1198 0.0 0.0 0.0 0.0 0.0 
3846.23 679.61 -241.04 5.94108 51.0153 -0.697757 -1.79378 0.208058 -2.1645 -1.79124 0.345338 -2.14689 -1.80252 0.852616 -2.00042 -1.80772 0.526062 -2.10991 -11.0581 7.85865 8.1875 -10.9113 9.45761 9.97877 -0.0 0.0 -0.0 10.9432 -11.6837 21.8929 5.24519 15.0359 70.262 0.291512 -8.21727 0.02094 4.97999 0.148651 -0.618543 2.12146 -9.04249 10.5398 -0.0 0.0 -0.0 12.668 28.2441 -24.6332 -13.9874 -11.9565 -57.9487 0.929894 24.7324 -0.20388 3.83897 -0.119353 0.475736 0.363463 20.2283 6.18125 0.0 0.0 0.0 -4.40754 2.85099 7.33401 -7.15208 0.22772 1.0733 14.8263 27.3436 -2.19953 -1.06476 0.0 0.0 -0.0 0.0 -0.0 0.788485 7.80862 2.59536 -7.1386 -0.227417 -1.07125 7.76402 -4.72009 1.11369 -6.77391 0.0 0.0 0.0 0.0 0.0 
3841.76 677.4 -243.368 7.48314 51.5834 -2.34022 -1.90059 0.256398 -2.08373 -1.89825 0.388443 -2.06321 -1.91076 0.877884 -1.90716 -1.91539 0.565733 -2.02181 -10.9498 7.75657 8.30432 -10.7946 9.16623 10.0568 -0.0 0.0 -0.0 11.0911 -12.0855 22.2166 4.97881 14.9752 70.2216 0.290345 -8.1848 0.0207734 4.97341 0.14849 -0.617719 2.25696 -9.12856 11.4335 -0.0 0.0 -0.0 12.4328 28.1203 -24.1117 -14.4164 -11.8153 -57.7429 0.891421 23.8252 -0.18806 3.92441 -0.121645 0.486409 0.526048 20.174 5.07784 0.0 0.0 0.0 -4.71606 1.72775 7.27114 -6.9533 0.22321 1.04313 14.7056 28.0692 -2.19269 -1.26453 0.0 0.0 -0.0 0.0 -0.0 1.37808 7.25638 2.37987 -7.51214 -0.235622 -1.12799 7.77117 -4.80449 1.1146 -6.53481 0.0 0.0 0.0 0.0 0.0 
